<svg xmlns="http://www.w3.org/2000/svg" width="59" height="81" viewBox="0 0 59 81"><g><g opacity="-1"><path fill="#fff" d="M56.23 12.73L46.127 2.627v7.38c0 1.58 1.23 2.723 2.723 2.723zM10.658 30.014h39.154c.551 0 1 .449 1 1v5.85c0 .552-.449 1-1 1H10.658c-.553 0-1-.448-1-1v-5.85c0-.551.447-1 1-1zm0 10.971h39.154a1 1 0 0 1 1 1v5.851a1 1 0 0 1-1 .999H10.658a1 1 0 0 1-1-.999v-5.85a1 1 0 0 1 1-1zm0 10.97h23.307c.551 0 1 .448 1 1v5.851c0 .551-.449 1-1 1H10.658c-.553 0-1-.449-1-1v-5.85a1 1 0 0 1 1-1zm46.1 28.601c1.21 0 2.196-1.025 2.196-2.284V16.596H48.851a6.51 6.51 0 0 1-6.502-6.501V-.097H2.375C1.135-.097.091.949.091 2.187v76.085c0 1.238 1.045 2.284 2.284 2.284z"/><path fill="none" stroke="#000" stroke-miterlimit="20" d="M56.23 12.73L46.127 2.627v7.38c0 1.58 1.23 2.723 2.723 2.723zM10.658 30.014h39.154c.551 0 1 .449 1 1v5.85c0 .552-.449 1-1 1H10.658c-.553 0-1-.448-1-1v-5.85c0-.551.447-1 1-1zm0 10.971h39.154a1 1 0 0 1 1 1v5.851a1 1 0 0 1-1 .999H10.658a1 1 0 0 1-1-.999v-5.85a1 1 0 0 1 1-1zm0 10.97h23.307c.551 0 1 .448 1 1v5.851c0 .551-.449 1-1 1H10.658c-.553 0-1-.449-1-1v-5.85a1 1 0 0 1 1-1zm46.1 28.601c1.21 0 2.196-1.025 2.196-2.284V16.596H48.851a6.51 6.51 0 0 1-6.502-6.501V-.097H2.375C1.135-.097.091.949.091 2.187v76.085c0 1.238 1.045 2.284 2.284 2.284z"/></g></g></svg>